<?xml version="1.0" encoding="utf-8"?>
<!-- Generator: Adobe Illustrator 22.1.0, SVG Export Plug-In . SVG Version: 6.00 Build 0)  -->
<svg version="1.1" id="Capa_1" xmlns="http://www.w3.org/2000/svg" xmlns:xlink="http://www.w3.org/1999/xlink" x="0px" y="0px"
	 viewBox="0 0 118 149" style="enable-background:new 0 0 118 149;" xml:space="preserve">
<style type="text/css">
	.st0{clip-path:url(#SVGID_2_);fill:#FFFFFF;}
	.st1{clip-path:url(#SVGID_4_);fill:url(#SVGID_5_);}
	.st2{clip-path:url(#SVGID_7_);fill:url(#SVGID_8_);}
	.st3{clip-path:url(#SVGID_10_);fill:url(#SVGID_11_);}
	.st4{clip-path:url(#SVGID_13_);fill:url(#SVGID_14_);}
	.st5{fill:#B70026;}
	.st6{fill:#A50F25;}
	.st7{fill:#891723;}
	.st8{fill:#434142;}
	.st9{fill:#666669;}
	.st10{fill:#004991;}
	.st11{fill:#004080;}
	.st12{fill:#003670;}
	.st13{fill:none;}
</style>
<g>
	<g>
		<defs>
			<rect id="SVGID_1_" x="8.7" y="11" width="103" height="129.7"/>
		</defs>
		<clipPath id="SVGID_2_">
			<use xlink:href="#SVGID_1_"  style="overflow:visible;"/>
		</clipPath>
		<path class="st0" d="M54.1,128.4c-0.4,0-0.8-0.2-1.1-0.4l-5.4-5.3c-2-2-3.9-4-5.9-6l-0.8-0.8l-0.7-0.7l-0.7-0.8l-0.7-0.8l-0.7-0.8
			l-0.7-0.8l-0.7-0.8l-0.7-0.8l-0.7-0.8l-0.7-0.8l-0.7-0.8l-0.7-0.8c-0.2-0.2-0.7-0.8-0.7-0.8c-0.2-0.2-0.7-0.8-0.7-0.8
			c-0.2-0.2-0.6-0.7-0.6-0.7c-9.6-10.7-15.4-18.6-17.5-23.7l-0.1-0.2c-0.1-0.2-0.1-0.3-0.2-0.6c0,0,0,0,0-0.1c0,0-0.1-0.2-0.1-0.2
			c0-0.1,0-0.1,0-0.2c0,0,0,0,0,0c-1.8-4.7-3.1-10.3-3.6-15.6C8.7,57.3,9.2,50.7,11,44.6c0,0,0,0,0-0.1c0,0,0.1-0.3,0.1-0.3
			c0.9-3,2.2-6,3.9-9.1c3.4-5.8,7.1-9.5,9.6-11.6c2.4-1.9,4.7-3.3,6.4-3.7c0.1,0,0.1,0,0.2-0.1c5.8-5.3,12.5-6.1,15.9-6.1
			c0.6,0,1.2,0,1.7,0.1c0,0,0,0,0,0c0.1,0,0.2,0,0.2-0.1c3.5-2.5,8.5-2.8,10.5-2.8c0.2,0,0.4,0,0.6,0c0,0,0,0,0,0c0.1,0,0.3,0,0.6,0
			c2,0,7,0.3,10.5,2.8c0.1,0,0.1,0.1,0.2,0.1c0,0,0,0,0,0c0.5,0,1.1-0.1,1.7-0.1c3.5,0,10.2,0.8,15.9,6.1c0,0,0.1,0.1,0.2,0.1
			c1.7,0.4,4,1.7,6.4,3.7c2.5,2.1,6.2,5.7,9.6,11.6c1.8,3.1,3.1,6.2,3.9,9.1c0,0,0,0.2,0,0.2c0,0,0,0.1,0.1,0.2
			c0,0.1,0.1,0.3,0.1,0.4l0.1,0.3c0,0.1,0.1,0.2,0.1,0.3c0.1,0.2,0.1,0.4,0.2,0.6l0,0.1c0,0.2,0.1,0.4,0.1,0.6c0,0.1,0,0.2,0.1,0.3
			l0,0.1c0.1,0.3,0.1,0.6,0.2,0.9c0,0.1,0.1,0.3,0.1,0.3c0.1,0.4,0.1,0.7,0.2,1l0,0.1c0.4,2.4,0.7,4.9,0.7,7.5v0c0,0.4,0,0.8,0,1.2
			c0,10.3-2.7,18.7-3.9,21.8c0,0.1-0.1,0.2-0.1,0.3c-0.1,0.3-0.1,0.4-0.2,0.6l-0.1,0.2c0,0.1-0.1,0.2-0.1,0.3c0,0-0.1,0.2-0.1,0.3
			c0,0-0.1,0.2-0.1,0.2c-0.1,0.1-0.1,0.2-0.2,0.3c0,0.1-0.1,0.2-0.1,0.3c0,0-0.1,0.3-0.1,0.3c-0.1,0.1-0.1,0.3-0.2,0.4l-0.1,0.1
			c-0.3,0.6-0.7,1.3-1.1,2l0,0c-2.8,4.6-7.5,10.8-14.2,18.3c0,0,0,0,0,0c-0.2,0.3-0.5,0.6-0.7,0.8l0,0c-0.2,0.3-0.5,0.5-0.7,0.8l0,0
			c-0.3,0.3-0.5,0.6-0.7,0.8l0,0c-0.3,0.3-0.5,0.5-0.7,0.8l0,0c-0.2,0.3-0.5,0.5-0.7,0.8l0,0c-0.3,0.3-0.5,0.5-0.7,0.8l0,0.1
			c-0.2,0.3-0.5,0.5-0.7,0.8l0,0c-0.3,0.3-0.5,0.5-0.8,0.8c0,0-0.5,0.6-0.8,0.8l-0.8,0.9c-0.3,0.3-0.8,0.8-0.8,0.8
			c-6.3,6.7-11.9,12.2-14.7,14.8c-0.3,0.3-0.7,0.4-1.1,0.4H54.1z"/>
		<path class="st0" d="M56.8,140.7c-0.5,0-0.9-0.3-1-0.8l-1.7-6.1c-0.5-0.1-0.9-0.5-0.9-1.1V132c0-0.6,0.5-1.1,1.1-1.1h11.9
			c0.6,0,1.1,0.5,1.1,1.1v0.8c0,0.5-0.4,1-0.9,1.1l-1.7,6.1c-0.1,0.5-0.5,0.8-1,0.8H56.8z"/>
		<path class="st0" d="M14.6,79.7c0.1,0.4,0.1,0.4,0.3,0.8c1.7,4.3,6.3,10.5,11.8,17.2c6.6,7.9,14.6,16.3,20.7,22.5
			c2.3,2.3,4.4,4.4,6.1,6.1c0,0,0,0,0,0c0.1,0.1,0.3,0.3,0.4,0.4l0.1,0l5.9,0h0l5.6,0l0.4,0c9.6-9.3,30-29.7,37.4-42v0
			c0.4-0.7,0.8-1.3,1.1-1.9c0-0.1,0.1-0.1,0.1-0.2c0.1-0.1,0.1-0.2,0.2-0.3c0-0.1,0.1-0.2,0.1-0.3c0-0.1,0.1-0.2,0.1-0.3
			c0-0.1,0.1-0.2,0.1-0.3c0-0.1,0.1-0.1,0.1-0.2c0.1-0.2,0.1-0.3,0.2-0.5c0,0,0-0.1,0.1-0.1v0c0.1-0.1,0.1-0.2,0.1-0.3
			c0.1-0.2,0.1-0.4,0.1-0.4c3.2-8.1,6-22.1,2-35.2c0,0-9.6-26.1-47.3-26.1c-33.6-1.1-47.5,26-47.5,26l0,0.7L12.6,45
			C8.8,58,11.5,71.7,14.6,79.7C14.6,79.7,14.6,79.7,14.6,79.7"/>
	</g>
	<g>
		<defs>
			<path id="SVGID_3_" d="M12.8,44.6l0,0.7L12.6,45c-3.8,13-1.1,26.7,2,34.6c0,0,0,0,0,0c0.1,0.4,0.2,0.4,0.3,0.8
				c1.7,4.3,6.3,10.5,11.8,17.2c6.6,7.9,14.6,16.3,20.7,22.5c2.3,2.3,4.4,4.4,6.1,6.1c0.1,0.1,0.3,0.3,0.4,0.4H54l3.1,0
				C38.9,86.8,46.8,32.4,49.1,19.3C23.6,23.6,12.8,44.6,12.8,44.6"/>
		</defs>
		<clipPath id="SVGID_4_">
			<use xlink:href="#SVGID_3_"  style="overflow:visible;"/>
		</clipPath>
		
			<linearGradient id="SVGID_5_" gradientUnits="userSpaceOnUse" x1="-539.3943" y1="665.8509" x2="-538.0785" y2="665.8509" gradientTransform="matrix(-35.2623 0 0 35.2623 -18963.127 -23406.4805)">
			<stop  offset="0" style="stop-color:#FFFFFF"/>
			<stop  offset="0.7143" style="stop-color:#FDFDFE"/>
			<stop  offset="0.9713" style="stop-color:#F6F8FC"/>
			<stop  offset="1" style="stop-color:#F5F7FB"/>
		</linearGradient>
		<rect x="8.8" y="19.3" class="st1" width="48.4" height="107.3"/>
	</g>
	<g>
		<defs>
			<path id="SVGID_6_" d="M63,126.6l3.1,0h0.1c1.8-1.8,4.1-4,6.5-6.5c6.1-6.2,14.1-14.5,20.7-22.5c5.5-6.6,10.1-12.8,11.8-17.2
				c0.1-0.4,0.1-0.4,0.3-0.8c0,0,0,0,0,0c3.1-8,5.8-21.7,2-34.6l-0.2,0.2l0-0.7c0,0-10.8-21-36.3-25.2C73.4,32.4,81.3,86.8,63,126.6
				"/>
		</defs>
		<clipPath id="SVGID_7_">
			<use xlink:href="#SVGID_6_"  style="overflow:visible;"/>
		</clipPath>
		
			<linearGradient id="SVGID_8_" gradientUnits="userSpaceOnUse" x1="-538.5657" y1="665.8509" x2="-537.2498" y2="665.8509" gradientTransform="matrix(35.2623 0 0 35.2623 19054.1074 -23406.4844)">
			<stop  offset="0" style="stop-color:#FFFFFF"/>
			<stop  offset="0.7143" style="stop-color:#FDFDFE"/>
			<stop  offset="0.9713" style="stop-color:#F6F8FC"/>
			<stop  offset="1" style="stop-color:#F5F7FB"/>
		</linearGradient>
		<rect x="63" y="19.3" class="st2" width="48.3" height="107.3"/>
	</g>
	<g>
		<defs>
			<path id="SVGID_9_" d="M91.2,81.1c-8,19.9-21.3,40.5-24.2,44.8c5.9-5.7,15.1-15,23.1-24.1c1.2-1.4,2.5-2.9,3.6-4.3
				c5.3-6.3,9.6-12.3,11.5-16.5c0-0.1,0.1-0.2,0.1-0.3c0.1-0.2,0.1-0.2,0.1-0.3c0,0.1,0,0.1,0-0.1c0,0,0.1-0.2,0.3-0.7
				c3.1-8,5.8-21.7,2-34.6l-0.2-0.5c0,0-5.6-10.9-18.2-18.5C92,35.5,98.5,62.9,91.2,81.1"/>
		</defs>
		<clipPath id="SVGID_10_">
			<use xlink:href="#SVGID_9_"  style="overflow:visible;"/>
		</clipPath>
		
			<linearGradient id="SVGID_11_" gradientUnits="userSpaceOnUse" x1="-541.3464" y1="668.0535" x2="-540.0305" y2="668.0535" gradientTransform="matrix(-42.2337 8.9771 8.9771 42.2337 -28746.877 -23283.8516)">
			<stop  offset="0" style="stop-color:#F5F7FB"/>
			<stop  offset="2.871168e-02" style="stop-color:#F6F8FC"/>
			<stop  offset="0.2857" style="stop-color:#FDFDFE"/>
			<stop  offset="1" style="stop-color:#FFFFFF"/>
		</linearGradient>
		<polygon class="st3" points="131.9,121.6 68.9,135 46.7,30.3 109.6,17 		"/>
	</g>
	<g>
		<defs>
			<path id="SVGID_12_" d="M12.7,44.6L12.5,45c-3.8,13-1.1,26.7,2,34.6c0,0,0,0,0,0c0.1,0.4,0.1,0.4,0.3,0.8
				C16.5,84.8,21,91,26.6,97.6c1.8,2.1,3.6,4.3,5.5,6.4c7.5,8.4,15.8,16.7,21.2,22h0c-2.8-4.2-16.2-24.9-24.2-44.8
				c-7.3-18.2-0.9-45.6,1.8-55.1C18.3,33.7,12.7,44.6,12.7,44.6"/>
		</defs>
		<clipPath id="SVGID_13_">
			<use xlink:href="#SVGID_12_"  style="overflow:visible;"/>
		</clipPath>
		
			<linearGradient id="SVGID_14_" gradientUnits="userSpaceOnUse" x1="-542.8321" y1="660.1419" x2="-541.5162" y2="660.1419" gradientTransform="matrix(-21.5584 4.5824 4.5824 21.5584 -14685.4033 -11670.501)">
			<stop  offset="0" style="stop-color:#FFFFFF"/>
			<stop  offset="0.7143" style="stop-color:#FDFDFE"/>
			<stop  offset="0.9713" style="stop-color:#F6F8FC"/>
			<stop  offset="1" style="stop-color:#F5F7FB"/>
		</linearGradient>
		<polygon class="st4" points="73.6,121.7 10.6,135 -11.6,30.3 51.4,16.9 		"/>
	</g>
	<path class="st5" d="M60.1,12.6c-1.2,0-7.2-0.1-10.7,2.9c0,0-9.8-1.6-17.6,5.9c-1.9,0-9.4,4.3-15.4,14.6c-1.6,2.8-2.9,5.8-3.8,8.8
		c1.2-1.6,5.7-7.8,15.3-6.9c0.7-0.5,6.7-7,19.1-4.8c1.7-1.8,7.9-3.7,13.1-3.7c5.2,0.1,11.4,2,13.1,3.7c12.4-2.3,18.4,4.2,19.1,4.8
		c9.6-0.9,14.1,5.3,15.3,6.9c-0.9-3-2.2-5.9-3.8-8.8c-6-10.3-13.5-14.6-15.4-14.6c-7.8-7.5-17.6-5.9-17.6-5.9
		C67.3,12.5,61.3,12.6,60.1,12.6"/>
	<path class="st6" d="M49.4,15.5c0,0-9.8-1.6-17.6,5.9c-1.9,0-9.4,4.3-15.4,14.6c-1.6,2.8-2.9,5.8-3.8,8.8c1.2-1.6,5.7-7.8,15.3-6.9
		c0.7-0.5,6.6-7,19-4.8C48.1,23.1,49.4,15.5,49.4,15.5"/>
	<path class="st7" d="M27.9,37.8C27.9,37.8,28,37.8,27.9,37.8c1.8-9.3,3.8-16.4,3.8-16.4c-1.9,0-9.4,4.3-15.4,14.6
		c-1.6,2.8-2.9,5.8-3.8,8.8C13.8,43.2,18.3,37,27.9,37.8"/>
	<path class="st6" d="M70.8,15.5c0,0,9.8-1.6,17.6,5.9c1.9,0,9.4,4.3,15.4,14.6c1.6,2.8,2.9,5.8,3.8,8.8c-1.2-1.6-5.7-7.8-15.3-6.9
		c-0.7-0.5-6.6-7-19-4.8C72.1,23.1,70.8,15.5,70.8,15.5"/>
	<path class="st7" d="M92.3,37.8C92.3,37.8,92.3,37.8,92.3,37.8c-1.8-9.3-3.8-16.4-3.8-16.4c1.9,0,9.4,4.3,15.4,14.6
		c1.6,2.8,2.9,5.8,3.8,8.8C106.5,43.2,101.9,37,92.3,37.8"/>
	<polygon class="st8" points="60.3,132.5 60.2,132.5 54.8,132.5 54.9,132.7 56.8,139.6 60.3,139.6 	"/>
	<polygon class="st9" points="60.2,132.5 60.3,132.5 65.7,132.5 65.6,132.7 63.6,139.6 60.2,139.6 	"/>
	<path class="st9" d="M66.2,132.8H54.3c0,0,0,0,0,0V132c0,0,0,0,0,0h11.9c0,0,0,0,0,0L66.2,132.8C66.2,132.8,66.2,132.8,66.2,132.8"
		/>
	<polygon class="st8" points="65.5,133 65.6,132.8 54.9,132.8 55,133 	"/>
	<path class="st10" d="M93.1,74.5c-0.1,0-6.2-6.3-18.3-5.2c-0.7-0.4-5.1-2.8-14.6-3.3c-8.7,0.2-14,2.9-14.6,3.3
		c-12.1-1.1-18.1,5.2-18.3,5.2C19.9,74.3,15,79.4,14.6,80c0.1,0.4,0.2,0.4,0.3,0.8c4.5,11.3,28.5,35.7,39.2,46h6h6
		c10.7-10.4,34.7-34.7,39.2-46c0.1-0.4,0.2-0.4,0.3-0.8C105.2,79.4,100.3,74.3,93.1,74.5"/>
	<path class="st11" d="M74.8,69.3c12.1-1.1,18.1,5.2,18.3,5.2c7.3-0.2,12.1,4.9,12.6,5.5c-0.1,0.4-0.1,0.4-0.3,0.8
		c-4.5,11.3-28.5,35.7-39.2,46h-3.3C71.2,108.9,74.2,88,74.8,69.3z"/>
	<path class="st12" d="M93.1,74.5L93.1,74.5c7.3-0.2,12.1,4.9,12.6,5.5c-0.1,0.4-0.1,0.4-0.3,0.8c-4.5,11.3-28.5,35.7-39.2,46
		c0,0,15.9-23.2,24.9-45.5C91.9,79.1,92.6,76.8,93.1,74.5"/>
	<path class="st11" d="M45.5,69.3c-12.1-1.1-18.1,5.2-18.3,5.2C19.9,74.3,15,79.4,14.6,80c0.1,0.4,0.1,0.4,0.3,0.8
		c4.5,11.3,28.5,35.7,39.2,46h3.3C49.1,108.9,46.1,88,45.5,69.3z"/>
	<path class="st12" d="M27.2,74.5L27.2,74.5C19.9,74.3,15,79.4,14.6,80c0.2,0.4,0.2,0.4,0.3,0.8c4.5,11.3,28.5,35.7,39.2,46
		c0,0-15.9-23.2-24.9-45.5C28.4,79.1,27.7,76.8,27.2,74.5"/>
	<path class="st10" d="M33.6,51C33.6,51,33.6,50.9,33.6,51c-0.1-1.4-0.5-2.4-1.3-2.9c-0.9-0.6-2.3-0.6-3.9-0.1
		c-1.8,0.6-3.5,1.2-5.2,1.9c0.2,4.5,0.5,9,0.7,13.5c1.2-0.5,1.7-0.7,2.9-1.1c-0.1-1.8-0.1-2.6-0.2-4.4c0.7-0.2,1-0.4,1.7-0.6
		c1.1,1.4,1.6,2.1,2.7,3.6c1.3-0.4,2-0.6,3.4-1c-1-1.4-2.1-2.8-3.2-4.2C32.7,54.6,33.7,52.9,33.6,51 M30.6,51.9
		C30.6,51.9,30.6,52,30.6,51.9c0.1,1.2-0.7,2.2-2.1,2.7c-0.8,0.3-1.2,0.4-2,0.7c-0.1-1.6-0.1-2.4-0.2-3.9c0.8-0.3,1.2-0.4,2-0.7
		C29.7,50.2,30.6,50.7,30.6,51.9"/>
	<path class="st10" d="M77.1,43.9c-1.8,4.3-3.6,8.6-5.4,13c1.2,0.1,1.8,0.2,3.1,0.4c0.4-1.1,0.6-1.7,1.1-2.8
		c1.9,0.3,2.9,0.5,4.7,0.8c0.4,1.3,0.6,1.9,0.9,3.1c1.2,0.3,1.9,0.4,3.1,0.7c-1.5-4.9-3.1-9.9-4.6-14.8
		C78.8,44.2,78.2,44.1,77.1,43.9 M79.7,52.6c-1.2-0.2-1.7-0.3-2.9-0.5c0.6-1.6,0.9-2.4,1.6-3.9C78.9,50,79.2,50.8,79.7,52.6"/>
	<path class="st10" d="M94,55c1.4-1.7,2.8-3.4,4.3-5.1c-1.3-0.5-2-0.8-3.3-1.2c-1,1.4-1.5,2.1-2.6,3.5c-0.7-1.7-1.4-3.4-2.1-5
		c-1.4-0.4-2.1-0.6-3.4-1c1.3,2.6,2.5,5.2,3.7,7.8c-1.5,1.9-2.9,3.8-4.4,5.7c1.3,0.3,2,0.5,3.3,0.9c1.1-1.5,1.6-2.3,2.7-3.8
		c0.8,1.8,1.5,3.6,2.2,5.4c1.3,0.5,2,0.7,3.3,1.2C96.5,60.6,95.3,57.8,94,55"/>
	<path class="st10" d="M40.5,55.8c0-1.2-0.1-1.7-0.1-2.9c1.8-0.4,3.6-0.7,5.4-1c0-1.1,0-1.6-0.1-2.6c-1.8,0.3-3.6,0.6-5.5,1
		c0-1.1-0.1-1.7-0.1-2.8c2.1-0.4,4.1-0.8,6.2-1.1c0-1.1,0-1.6-0.1-2.6c-3.1,0.5-6.2,1.1-9.3,1.8c0.2,4.5,0.3,9,0.5,13.6
		c1.9-0.4,3.7-0.8,5.6-1.2c0.5-1.2,0.8-1.7,1.3-2.9C43,55.3,42.2,55.4,40.5,55.8"/>
	<path class="st10" d="M66.2,42.9c-1.1,1.4-2.1,2.9-3.2,4.3c-1-1.5-2.1-3-3.2-4.4c0,0,0,0,0,0c-1.1,2-2.1,4-3.2,6c0,2.6,0,5.1,0,7.7
		c1.2,0,1.8-0.1,3-0.1c0-2.8,0-5.6,0-8.4c1.1,1.4,2.2,2.8,3.2,4.2c0,0,0,0,0,0c0.1,0,0.1,0,0.1,0c1.1-1.4,2.2-2.8,3.3-4.1
		c0,2.8,0,5.6-0.1,8.5c1.2,0.1,1.8,0.1,3,0.2c0.1-4.5,0.1-9.1,0.2-13.6C68.1,43,67.5,42.9,66.2,42.9"/>
	<path class="st5" d="M49.7,57c2.3-4.8,4.7-9.5,7.1-14.3c-1.5,0.1-2.3,0.1-3.8,0.2c-2.4,4.8-4.8,9.6-7,14.5
		C47.5,57.2,48.3,57.1,49.7,57"/>
	<rect x="8.7" y="11" class="st13" width="103" height="129.7"/>
</g>
</svg>
